<?xml version="1.0" encoding="UTF-8"?>
<svg version="1.1" xmlns="http://www.w3.org/2000/svg" width="512" height="512">
<path d="M0 0 C1.46128167 -0.00445668 1.46128167 -0.00445668 2.95208418 -0.0090034 C6.20192115 -0.01764389 9.45172108 -0.01919472 12.7015686 -0.02069092 C15.03804604 -0.02532251 17.37452272 -0.03034762 19.71099854 -0.03573608 C26.05037391 -0.0488321 32.38973871 -0.05529997 38.7291255 -0.05974674 C42.6959405 -0.06268292 46.66275264 -0.06678882 50.62956619 -0.07125092 C61.63588749 -0.08343948 72.64220688 -0.09373838 83.64853477 -0.09712601 C84.7036612 -0.09745536 84.7036612 -0.09745536 85.7801033 -0.09779136 C86.48510775 -0.09800964 87.1901122 -0.09822791 87.91648042 -0.09845281 C89.34484315 -0.09889626 90.77320588 -0.09934282 92.2015686 -0.09979248 C93.26432152 -0.10012463 93.26432152 -0.10012463 94.3485442 -0.10046348 C105.80752285 -0.10440452 117.26643764 -0.12183913 128.72539167 -0.145152 C140.52080381 -0.16895339 152.31618403 -0.1813319 164.11162055 -0.18249393 C170.72181833 -0.18340597 177.3319427 -0.1893635 183.9421196 -0.20731354 C190.16873469 -0.22389317 196.39519294 -0.22590201 202.62182236 -0.21717453 C204.89442874 -0.21640934 207.1670439 -0.22067762 209.4396286 -0.23063278 C225.64919295 -0.2974168 241.73645512 0.32144632 257.17276001 5.82794189 C257.90373901 6.08067871 258.63471802 6.33341553 259.3878479 6.59381104 C277.00432567 12.91022676 292.16692276 22.71076153 306.04776001 35.14044189 C306.77865845 35.78626221 307.50955688 36.43208252 308.26260376 37.09747314 C329.40454723 56.94236487 343.94932255 88.42855607 345.14173365 117.42569995 C345.181674 119.98182919 345.19066794 122.5362405 345.1882019 125.09268188 C345.19265859 126.55396356 345.19265859 126.55396356 345.19720531 128.04476607 C345.20584579 131.29460304 345.20739662 134.54440296 345.20889282 137.79425049 C345.21352441 140.13072792 345.21854953 142.46720461 345.22393799 144.80368042 C345.237034 151.1430558 345.24350187 157.4824206 345.24794865 163.82180738 C345.25088482 167.78862238 345.25499072 171.75543452 345.25945282 175.72224808 C345.27164139 186.72856938 345.28194028 197.73488876 345.28532791 208.74121666 C345.28554748 209.44463427 345.28576704 210.14805189 345.28599326 210.87278519 C345.28621154 211.57778964 345.28642982 212.28279409 345.28665471 213.00916231 C345.28709816 214.43752503 345.28754472 215.86588776 345.28799438 217.29425049 C345.28821581 218.00275243 345.28843724 218.71125438 345.28866538 219.44122608 C345.29260642 230.90020473 345.31004103 242.35911953 345.33335391 253.81807356 C345.35715529 265.61348569 345.3695338 277.40886592 345.37069583 289.20430243 C345.37160788 295.81450022 345.3775654 302.42462458 345.39551544 309.03480148 C345.41209508 315.26141658 345.41410391 321.48787483 345.40537643 327.71450424 C345.40461124 329.98711062 345.40887953 332.25972578 345.41883469 334.53231049 C345.48561871 350.74187483 344.86675558 366.82913701 339.36026001 382.26544189 C339.10752319 382.9964209 338.85478638 383.7273999 338.59439087 384.48052979 C326.63884905 417.82452514 302.61589329 443.49266708 271.04776001 459.14044189 C255.02122539 466.47442082 237.68153736 470.29784153 220.08879089 470.28088379 C218.62645087 470.28534047 218.62645087 470.28534047 217.13456863 470.28988719 C213.88239769 470.29852768 210.63026376 470.3000785 207.37808228 470.30157471 C205.03998232 470.30620626 202.70188312 470.31123138 200.36378479 470.31661987 C194.02034445 470.32971546 187.67691469 470.33618357 181.33346295 470.34063053 C177.36464564 470.34356654 173.39583118 470.3476724 169.4270153 470.3521347 C158.41640279 470.36432269 147.40579219 470.37462203 136.39517307 470.3780098 C135.33966931 470.37833915 135.33966931 470.37833915 134.26284223 470.37867515 C133.55758233 470.37889343 132.85232242 470.3791117 132.125691 470.3793366 C130.69680059 470.37978005 129.26791018 470.38022661 127.83901978 470.38067627 C126.77587339 470.38100841 126.77587339 470.38100841 125.6912493 470.38134727 C114.22512859 470.38528927 102.75907166 470.40272709 91.29297555 470.42603579 C79.49191818 470.44982964 67.6908927 470.46221533 55.88981098 470.46337771 C49.2757327 470.46429012 42.66172779 470.4702566 36.04767036 470.48819733 C29.81859606 470.50476532 23.58967857 470.50679134 17.36058998 470.49805832 C15.08595101 470.49729254 12.8113033 470.50156943 10.53668594 470.51151657 C-28.88580783 470.67367667 -61.335488 458.58245038 -89.95223999 431.14044189 C-112.16186464 408.3283862 -125.12336823 376.99948178 -125.09268188 345.1882019 C-125.09565301 344.21401412 -125.09862413 343.23982634 -125.10168529 342.23611772 C-125.11032577 338.98628075 -125.1118766 335.73648082 -125.1133728 332.4866333 C-125.11800439 330.15015587 -125.12302951 327.81367918 -125.12841797 325.47720337 C-125.14151398 319.13782799 -125.14798185 312.79846319 -125.15242863 306.4590764 C-125.1553648 302.49226141 -125.1594707 298.52544927 -125.1639328 294.55863571 C-125.17612137 283.55231441 -125.18642026 272.54599503 -125.18980789 261.53966713 C-125.19002746 260.83624952 -125.19024702 260.1328319 -125.19047324 259.4080986 C-125.19069152 258.70309415 -125.1909098 257.9980897 -125.19113469 257.27172148 C-125.19157814 255.84335875 -125.1920247 254.41499603 -125.19247437 252.9866333 C-125.19269579 252.27813136 -125.19291722 251.56962941 -125.19314536 250.83965771 C-125.1970864 239.38067906 -125.21452101 227.92176426 -125.23783389 216.46281023 C-125.26163528 204.6673981 -125.27401378 192.87201787 -125.27517581 181.07658136 C-125.27608786 174.46638357 -125.28204538 167.85625921 -125.29999542 161.24608231 C-125.31657506 155.01946721 -125.31858389 148.79300896 -125.30985641 142.56637955 C-125.30909122 140.29377317 -125.31335951 138.02115801 -125.32331467 135.7485733 C-125.39009869 119.53900896 -124.77123556 103.45174678 -119.26473999 88.01544189 C-119.01200317 87.28446289 -118.75926636 86.55348389 -118.49887085 85.800354 C-112.18245512 68.18387624 -102.38192036 53.02127915 -89.95223999 39.14044189 C-89.30641968 38.40954346 -88.66059937 37.67864502 -87.99520874 36.92559814 C-65.87673598 13.36147357 -31.98427034 -0.03085322 0 0 Z " fill="#FEB0E8" transform="translate(145.95223999023438,20.85955810546875)"/>
<path d="M0 0 C1.47503566 -0.00668677 1.47503566 -0.00668677 2.97987002 -0.01350862 C4.06292196 -0.01332426 5.1459739 -0.01313989 6.26184559 -0.01294994 C7.4103261 -0.01662663 8.55880662 -0.02030332 9.74208957 -0.02409142 C12.93511688 -0.03321917 16.12811397 -0.03782816 19.32115209 -0.04048073 C22.76301044 -0.0443839 26.20485391 -0.05396224 29.64670277 -0.0626936 C37.96146543 -0.08245788 46.27622931 -0.09252427 54.59100959 -0.10142139 C58.50652519 -0.10580443 62.42203944 -0.11117121 66.33755398 -0.11641026 C79.35360114 -0.13342266 92.36964746 -0.14791679 105.38570404 -0.155159 C108.7635921 -0.15706889 112.14148014 -0.15898923 115.51936817 -0.16094494 C116.77870574 -0.16167055 116.77870574 -0.16167055 118.06348447 -0.16241082 C131.66350301 -0.17071096 145.26343358 -0.19604753 158.86341371 -0.22852562 C172.82598231 -0.26159777 186.78850621 -0.27960791 200.75111419 -0.28280324 C208.59070147 -0.28496822 216.43016048 -0.293715 224.26970959 -0.31926441 C230.94635383 -0.34097358 237.62283866 -0.34902082 244.2995142 -0.33929763 C247.7051239 -0.33475346 251.1104047 -0.33664536 254.51596928 -0.35605907 C258.21140621 -0.37371025 261.90600814 -0.36670394 265.6014452 -0.35352612 C266.67334353 -0.36449536 267.74524186 -0.37546461 268.84962195 -0.38676625 C276.24151789 -0.32310775 281.64048344 0.88851637 287.30769825 5.98578358 C287.76273731 6.57101795 288.21777637 7.15625233 288.6866045 7.75922108 C289.15969044 8.3496117 289.63277637 8.94000233 290.12019825 9.54828358 C293.42026924 14.18436946 292.74269777 19.6635623 292.2491045 25.13422108 C290.66280047 30.49661838 288.01067699 34.1146873 283.2491045 37.13422108 C279.76386547 38.74731078 277.0369068 39.38558637 273.20526123 39.39428329 C272.20747184 39.40134889 271.20968245 39.40841448 270.18165702 39.41569418 C269.09275792 39.41327909 268.00385882 39.41086401 266.88196278 39.40837574 C265.71952276 39.41361242 264.55708274 39.4188491 263.35941726 39.42424446 C260.13667178 39.43665062 256.91406149 39.44008802 253.6912967 39.43964756 C250.21401455 39.44129696 246.73677202 39.45436571 243.25951099 39.46584034 C235.65827324 39.48867917 228.05706342 39.49660961 220.455796 39.50166678 C215.70864461 39.50492483 210.96150132 39.51144793 206.21435452 39.51866817 C193.06783497 39.53823194 179.92132294 39.55463769 166.7747879 39.55754471 C165.9337068 39.55773228 165.09262569 39.55791985 164.22605728 39.5581131 C162.52102681 39.55847935 160.81599634 39.55884305 159.11096587 39.55920421 C158.26460093 39.55938702 157.418236 39.55956984 156.54622364 39.55975819 C155.69882442 39.55993874 154.8514252 39.56011928 153.97834722 39.5603053 C140.24586378 39.56384735 126.51353711 39.59087258 112.78110804 39.62825608 C98.67834796 39.66634019 84.57566566 39.68570219 70.472853 39.68600422 C62.55614248 39.68658874 54.63961902 39.69507699 46.72295666 39.72400188 C39.98228319 39.74851711 33.24186503 39.75579778 26.50115903 39.74075436 C23.06306895 39.73358609 19.62548299 39.73443826 16.18744946 39.75716496 C12.45692395 39.77754691 8.7277054 39.76711751 4.99719715 39.74895191 C3.91499022 39.76215188 2.83278328 39.77535185 1.7177822 39.78895181 C-4.97808949 39.71445225 -9.63118327 38.61128171 -14.7508955 34.13422108 C-19.33234412 28.26056899 -20.22287071 23.51972081 -20.16105175 16.21625233 C-19.41929603 10.6424879 -16.35570449 7.27678578 -12.12198925 3.79437733 C-8.13081951 0.98355352 -4.80384089 0.01009431 0 0 Z " fill="#B5016F" transform="translate(119.7508955001831,240.86577892303467)"/>
<path d="M0 0 C1.74750494 -0.01064158 1.74750494 -0.01064158 3.53031301 -0.02149814 C6.74657792 -0.0360065 9.96187815 -0.02822721 13.17809939 -0.01077521 C16.65330356 0.00263326 20.12839836 -0.01285069 23.60359192 -0.02459717 C30.40454542 -0.04295235 37.20521114 -0.03447579 44.00615561 -0.01650894 C49.53461651 -0.00246907 55.06299942 0.00140688 60.59147644 -0.00195122 C61.77285282 -0.00266738 61.77285282 -0.00266738 62.97809538 -0.00339801 C64.57818228 -0.00442437 66.17826916 -0.00547973 67.77835602 -0.00656378 C81.91939281 -0.01512654 96.0602909 0.00153035 110.20129395 0.03126526 C123.9152204 0.06010164 137.62894704 0.06718567 151.34289551 0.05177307 C166.28541353 0.03500267 181.22783672 0.03098525 196.17035723 0.04848343 C197.76447581 0.05032777 199.35859441 0.0521625 200.95271301 0.0539875 C202.12914175 0.05535564 202.12914175 0.05535564 203.32933673 0.05675141 C208.84955357 0.06235159 214.36972404 0.05905447 219.88993835 0.05244255 C226.61956418 0.04470187 233.3489935 0.05148827 240.07857978 0.07661759 C243.5105261 0.08909577 246.94216674 0.09527991 250.37412453 0.08407593 C254.09780099 0.07538943 257.8205874 0.09132598 261.54418945 0.11352539 C262.62435003 0.10528462 263.7045106 0.09704386 264.81740332 0.08855337 C271.13533649 0.15809029 276.02095634 0.94466456 281.27209473 4.62818909 C286.85490323 10.50482961 287.84782772 15.37964898 287.71350098 23.35865784 C287.03716599 28.36832496 285.01386078 31.31847881 281.27209473 34.62818909 C278.98120274 36.25031136 276.82167279 37.4024304 274.27209473 38.62818909 C273.61209473 38.95818909 272.95209473 39.28818909 272.27209473 39.62818909 C270.73187501 39.72508449 269.18750821 39.75916876 267.64424706 39.76241016 C266.662881 39.76686801 265.68151494 39.77132585 264.67041051 39.77591878 C263.04146335 39.77564224 263.04146335 39.77564224 261.37960815 39.77536011 C259.65816902 39.78087514 259.65816902 39.78087514 257.90195334 39.78650159 C254.7066667 39.7956397 251.51141024 39.8002406 248.31611276 39.8028909 C244.87355514 39.80678997 241.43101246 39.81636871 237.98846436 39.82510376 C229.6688346 39.84488136 221.34920361 39.85493687 213.02955621 39.86383155 C209.11254416 39.86821309 205.19553347 39.87358032 201.27852249 39.87882042 C188.25822671 39.89583542 175.23793177 39.91032915 162.21762657 39.91756916 C158.83750787 39.91947909 155.45738918 39.92139942 152.07727051 39.9233551 C150.81708469 39.92408071 150.81708469 39.92408071 149.53144057 39.92482098 C135.92489193 39.93311955 122.31843126 39.95845229 108.71192102 39.99093578 C94.74486403 40.02400828 80.77785173 40.04201817 66.81075537 40.0452134 C58.96779976 40.04737853 51.12497236 40.05612729 43.2820549 40.08167458 C36.60172666 40.10338437 29.92155774 40.11143074 23.24119823 40.10170779 C19.83357028 40.09716358 16.42627104 40.09905572 13.0186882 40.11846924 C9.32100839 40.13612042 5.62416308 40.12911407 1.92648315 40.11593628 C0.85390271 40.12690553 -0.21867774 40.13787477 -1.32376063 40.14917642 C-8.25681622 40.08950635 -14.11906783 39.14759053 -19.24829829 34.14547521 C-24.28251897 28.27440555 -25.24264553 24.52533537 -25.09899902 16.92897034 C-24.46946482 11.32942923 -22.31953331 7.87462241 -18.09724569 4.21472698 C-12.18246885 0.10897444 -7.05753037 -0.07733203 0 0 Z " fill="#B5016F" transform="translate(124.7279052734375,143.37181091308594)"/>
<path d="M0 0 C1.22240387 -0.00852997 2.44480774 -0.01705994 3.70425415 -0.02584839 C5.0560304 -0.02514938 6.40780655 -0.02422633 7.75958252 -0.02310181 C9.18560132 -0.02908737 10.61161687 -0.03589298 12.03762817 -0.04345703 C15.90972313 -0.06112467 19.78172968 -0.06581282 23.65386105 -0.0670886 C26.07480474 -0.06851069 28.495726 -0.07278145 30.91666412 -0.07808304 C39.36789882 -0.09658807 47.81907043 -0.10475334 56.27032471 -0.10317993 C64.13881545 -0.10197942 72.0070315 -0.12306266 79.87545276 -0.15466726 C86.63739901 -0.1808562 93.39925571 -0.19154608 100.16125226 -0.19026911 C104.19690178 -0.18976011 108.23230733 -0.19540854 112.26790619 -0.21662521 C116.06668745 -0.23605112 119.8649932 -0.23610277 123.66379166 -0.22159195 C125.05369133 -0.21950789 126.4436211 -0.22418075 127.83346939 -0.23631287 C136.64371996 -0.30820211 143.28137776 -0.00371252 150.08868408 6.11898804 C150.54372314 6.70422241 150.99876221 7.28945679 151.46759033 7.89242554 C151.94067627 8.48281616 152.41376221 9.07320679 152.90118408 9.68148804 C156.35887807 14.53900969 155.60514848 20.55696443 155.03009033 26.26742554 C153.17004279 31.74326644 149.47774854 35.30938401 144.59226799 38.23331642 C139.18155997 40.41710819 133.33587826 39.96875177 127.5869751 39.93026733 C126.13242281 39.93869126 124.67788143 39.94922113 123.22335815 39.96168518 C119.29133963 39.98864303 115.35995798 39.98405671 111.42788815 39.97198462 C108.13771871 39.96483161 104.84766544 39.97336732 101.55750507 39.98189002 C93.79199326 40.00181394 86.02678951 39.99630546 78.2612915 39.97421265 C70.266453 39.95185297 62.27242216 39.96944851 54.27765995 40.00726193 C47.39752244 40.03855292 40.5176342 40.04639466 33.63743442 40.03530818 C29.53522666 40.02883883 25.43348461 40.03073774 21.33133125 40.05463219 C17.47232839 40.07596768 13.61445978 40.06780025 9.7555275 40.03753853 C8.34509632 40.03123956 6.93457602 40.03500307 5.52420998 40.04994965 C-3.15068959 40.13438315 -9.52226688 39.46228345 -15.96990967 33.26742554 C-20.08575882 27.96509177 -20.6023505 22.65210763 -20.35272217 16.03695679 C-19.62365415 10.76237283 -16.79975178 7.89040831 -12.96990967 4.51742554 C-8.40873313 1.09654314 -5.74288519 0.0181148 0 0 Z " fill="#B5006E" transform="translate(119.96990966796875,338.7325744628906)"/>
<path d="M0 0 C2.09160871 0.91729129 4.12272119 1.91334501 6.15740585 2.95084763 C7.3173204 3.52160522 7.3173204 3.52160522 8.50066757 4.10389328 C11.04302703 5.35972757 13.57464853 6.63565954 16.10613632 7.91324997 C17.87736512 8.79650508 19.64900874 9.67892875 21.42104721 10.56055832 C25.12913196 12.40944734 28.83197723 14.26834211 32.53142929 16.13444138 C37.26421383 18.52076201 42.00911192 20.88174498 46.75823784 23.23534203 C50.41797018 25.05253493 54.0709033 26.88306491 57.72194672 28.71764374 C59.46852878 29.593263 61.21718595 30.4647561 62.96795654 31.33197021 C65.41836125 32.54824232 67.85902391 33.78222399 70.29803085 35.02116013 C71.01711624 35.37361801 71.73620163 35.7260759 72.47707748 36.08921432 C77.18144494 38.51070681 80.09155035 40.98286568 83.09832382 45.37418747 C83.24789756 49.63703892 82.77833823 51.57759845 80.00207138 54.82979965 C76.69526868 57.72736163 73.42676599 59.57595887 69.51336288 61.52189255 C68.76631088 61.90301193 68.01925888 62.28413132 67.24956894 62.67679977 C64.79284576 63.92625852 62.32898024 65.16074129 59.86394882 66.39371872 C58.14370005 67.26061232 56.42363034 68.12786135 54.70373154 68.99544907 C51.10273067 70.80863928 47.49781559 72.61375937 43.89031601 74.41398239 C39.27975367 76.71621425 34.68251893 79.04378911 30.08825684 81.37834263 C26.54100292 83.1760704 22.98560304 84.95719137 19.42772293 86.73378181 C17.72967049 87.58482803 16.03448725 88.44162526 14.34235001 89.30437279 C11.97010894 90.51147562 9.5874199 91.69496582 7.20086288 92.87345505 C6.51171799 93.23027863 5.82257309 93.5871022 5.11254501 93.95473862 C0.2341653 96.32165893 -4.50009892 97.66268683 -9.90167618 96.37418747 C-13.91242924 93.0909286 -14.70860855 91.57736518 -15.52986526 86.45937729 C-15.55630202 84.96303355 -15.55563906 83.46604912 -15.53277969 81.96964645 C-15.539935 81.14774826 -15.5470903 80.32585007 -15.55446243 79.47904587 C-15.57130399 76.77555047 -15.55197614 74.07372387 -15.53058243 71.37028122 C-15.53141147 69.48511239 -15.53387218 67.59994363 -15.53789139 65.7147789 C-15.54074617 61.76972747 -15.5260781 57.82524479 -15.49860001 53.88029099 C-15.46449433 48.82715278 -15.47054624 43.77502978 -15.48926258 38.72184277 C-15.49983698 34.83128034 -15.49089114 30.94095364 -15.47587776 27.05041313 C-15.4707003 25.18731575 -15.47117246 23.32419371 -15.47742271 21.46109962 C-15.48288122 18.85664006 -15.46248136 16.25362845 -15.43512344 13.64933395 C-15.44164932 12.88192383 -15.4481752 12.1145137 -15.45489883 11.32384872 C-15.36700496 6.39601776 -14.43214638 3.82641397 -10.90167618 0.37418747 C-7.40477231 -1.37426446 -3.69652002 -1.21646818 0 0 Z " fill="#B5006E" transform="translate(319.9016761779785,310.6258125305176)"/>
</svg>
